<?xml version="1.0" encoding="UTF-8"?>
<svg width="40px" height="40px" viewBox="0 0 40 40" version="1.1" xmlns="http://www.w3.org/2000/svg" xmlns:xlink="http://www.w3.org/1999/xlink">
    <title>xmark</title>
    <g id="xmark" stroke="none" stroke-width="1" fill="none" fill-rule="evenodd">
        <g transform="translate(9.000000, 9.000000)" fill="#000000" fill-rule="nonzero">
            <rect id="矩形" opacity="0" x="0" y="0" width="22" height="22"></rect>
            <path d="M18.1316667,4.84 C18.26,4.69333333 18.3241667,4.52833333 18.3241667,4.345 C18.3241667,4.16166667 18.26,4.00277778 18.1316667,3.86833333 C17.9972222,3.72166667 17.8352778,3.64833333 17.6458333,3.64833333 C17.4563889,3.64833333 17.2944444,3.72166667 17.16,3.86833333 L11,10.0283333 L4.84,3.86833333 C4.70555556,3.72166667 4.54361111,3.64833333 4.35416667,3.64833333 C4.16472222,3.64833333 3.99666667,3.72166667 3.85,3.86833333 C3.73388889,4.00277778 3.67583333,4.16166667 3.67583333,4.345 C3.67583333,4.52833333 3.73388889,4.69333333 3.85,4.84 L10.0283333,11 L3.85,17.1416667 C3.73388889,17.2883333 3.67583333,17.4563889 3.67583333,17.6458333 C3.67583333,17.8352778 3.73388889,17.9972222 3.85,18.1316667 C3.99666667,18.2477778 4.16472222,18.3088889 4.35416667,18.315 C4.54361111,18.3211111 4.70555556,18.26 4.84,18.1316667 L11,11.9716667 L17.16,18.1316667 C17.2944444,18.26 17.4563889,18.3241667 17.6458333,18.3241667 C17.8352778,18.3241667 17.9972222,18.26 18.1316667,18.1316667 C18.26,17.9972222 18.3241667,17.8352778 18.3241667,17.6458333 C18.3241667,17.4563889 18.26,17.2883333 18.1316667,17.1416667 L11.9716667,11 L18.1316667,4.84 Z" id="路径" fill-opacity="0.90196079"></path>
        </g>
    </g>
</svg>